STARTFONT 2.1
FONT -Monotype-Plantin-Regular-R-Normal--17-120-100-100-P-87-iso8859-5
SIZE 12 100 100
FONTBOUNDINGBOX 19 19 -1 -4

STARTPROPERTIES 24
FOUNDRY "Monotype"
FAMILY_NAME "Plantin"
WEIGHT_NAME "Regular"
SLANT "R"
SETWIDTH_NAME "Normal"
ADD_STYLE_NAME ""
PIXEL_SIZE 17
POINT_SIZE 120
RESOLUTION_X 100
RESOLUTION_Y 100
SPACING "P"
AVERAGE_WIDTH 87
CHARSET_REGISTRY "iso8859"
CHARSET_ENCODING "5"
FACE_NAME "Plantin ISO Latin Cyrillic"
_DEC_DEVICE_FONTNAMES "PS=plantin-latcyrillic"
COPYRIGHT "Copyright (c) 1994 Monotype Typography Ltd."
CAP_HEIGHT 13
X_HEIGHT 9
WEIGHT 10
QUAD_WIDTH 11
DEFAULT_CHAR 160
FONT_DESCENT 4
FONT_ASCENT 16
ENDPROPERTIES

CHARS 191

STARTCHAR space
ENCODING 32
SWIDTH 250 0
DWIDTH 4 0
BBX 0 0 0 0
BITMAP
ENDCHAR

STARTCHAR exclam
ENCODING 33
SWIDTH 292 0
DWIDTH 5 0
BBX 1 12 2 0
BITMAP
80
80
80
80
80
80
80
80
80
00
80
80
ENDCHAR

STARTCHAR quotedbl
ENCODING 34
SWIDTH 406 0
DWIDTH 7 0
BBX 4 5 1 7
BITMAP
90
90
90
90
90
ENDCHAR

STARTCHAR numbersign
ENCODING 35
SWIDTH 500 0
DWIDTH 9 0
BBX 8 12 0 0
BITMAP
12
12
12
12
7F
24
24
FE
48
48
48
48
ENDCHAR

STARTCHAR dollar
ENCODING 36
SWIDTH 552 0
DWIDTH 9 0
BBX 7 14 1 -2
BITMAP
28
7C
AA
AA
A8
68
3C
2A
2A
AA
AC
78
28
28
ENDCHAR

STARTCHAR percent
ENCODING 37
SWIDTH 875 0
DWIDTH 15 0
BBX 14 12 0 0
BITMAP
7020
8820
8840
8880
8880
7100
0238
0244
0444
0844
0844
1038
ENDCHAR

STARTCHAR ampersand
ENCODING 38
SWIDTH 750 0
DWIDTH 13 0
BBX 12 12 0 0
BITMAP
1C00
2200
2200
2400
18F0
3860
4440
8480
8300
8100
4280
3C60
ENDCHAR

STARTCHAR quoteright
ENCODING 39
SWIDTH 292 0
DWIDTH 5 0
BBX 3 4 1 8
BITMAP
60
60
40
80
ENDCHAR

STARTCHAR parenleft
ENCODING 40
SWIDTH 385 0
DWIDTH 7 0
BBX 5 16 1 -4
BITMAP
08
10
20
40
40
80
80
80
80
80
80
40
40
20
10
08
ENDCHAR

STARTCHAR parenright
ENCODING 41
SWIDTH 385 0
DWIDTH 7 0
BBX 5 16 1 -4
BITMAP
80
40
20
10
10
08
08
08
08
08
08
10
10
20
40
80
ENDCHAR

STARTCHAR asterisk
ENCODING 42
SWIDTH 500 0
DWIDTH 9 0
BBX 8 7 0 5
BITMAP
08
18
FF
18
24
24
42
ENDCHAR

STARTCHAR plus
ENCODING 43
SWIDTH 667 0
DWIDTH 11 0
BBX 9 9 1 1
BITMAP
0800
0800
0800
0800
FF80
0800
0800
0800
0800
ENDCHAR

STARTCHAR comma
ENCODING 44
SWIDTH 292 0
DWIDTH 5 0
BBX 3 4 1 -2
BITMAP
60
60
40
80
ENDCHAR

STARTCHAR minus
ENCODING 45
SWIDTH 667 0
DWIDTH 11 0
BBX 9 1 1 5
BITMAP
FF80
ENDCHAR

STARTCHAR period
ENCODING 46
SWIDTH 292 0
DWIDTH 5 0
BBX 2 2 1 0
BITMAP
C0
C0
ENDCHAR

STARTCHAR slash
ENCODING 47
SWIDTH 281 0
DWIDTH 5 0
BBX 5 12 0 0
BITMAP
08
08
10
10
10
20
20
40
40
40
80
80
ENDCHAR

STARTCHAR zero
ENCODING 48
SWIDTH 552 0
DWIDTH 9 0
BBX 7 12 1 0
BITMAP
38
44
82
82
82
82
82
82
82
82
44
38
ENDCHAR

STARTCHAR one
ENCODING 49
SWIDTH 552 0
DWIDTH 9 0
BBX 3 12 3 0
BITMAP
40
C0
40
40
40
40
40
40
40
40
40
E0
ENDCHAR

STARTCHAR two
ENCODING 50
SWIDTH 552 0
DWIDTH 9 0
BBX 7 12 1 0
BITMAP
78
8C
04
04
04
04
08
10
20
40
82
FC
ENDCHAR

STARTCHAR three
ENCODING 51
SWIDTH 552 0
DWIDTH 9 0
BBX 7 12 1 0
BITMAP
7C
82
02
02
04
1C
22
02
02
02
82
7C
ENDCHAR

STARTCHAR four
ENCODING 52
SWIDTH 552 0
DWIDTH 9 0
BBX 7 12 1 0
BITMAP
04
0C
14
14
24
44
44
84
FE
04
04
0E
ENDCHAR

STARTCHAR five
ENCODING 53
SWIDTH 552 0
DWIDTH 9 0
BBX 7 12 1 0
BITMAP
7E
40
40
40
F8
84
02
02
02
02
84
78
ENDCHAR

STARTCHAR six
ENCODING 54
SWIDTH 552 0
DWIDTH 9 0
BBX 7 12 1 0
BITMAP
1C
20
40
40
B8
C4
82
82
82
82
44
38
ENDCHAR

STARTCHAR seven
ENCODING 55
SWIDTH 552 0
DWIDTH 9 0
BBX 8 12 0 0
BITMAP
7F
82
02
04
04
08
08
10
10
20
20
20
ENDCHAR

STARTCHAR eight
ENCODING 56
SWIDTH 552 0
DWIDTH 9 0
BBX 7 12 1 0
BITMAP
7C
82
82
82
C2
7C
86
82
82
82
82
7C
ENDCHAR

STARTCHAR nine
ENCODING 57
SWIDTH 552 0
DWIDTH 9 0
BBX 7 12 1 0
BITMAP
38
44
82
82
82
82
46
3A
04
04
08
70
ENDCHAR

STARTCHAR colon
ENCODING 58
SWIDTH 292 0
DWIDTH 5 0
BBX 2 8 1 0
BITMAP
C0
C0
00
00
00
00
C0
C0
ENDCHAR

STARTCHAR semicolon
ENCODING 59
SWIDTH 292 0
DWIDTH 5 0
BBX 3 10 0 -2
BITMAP
60
60
00
00
00
00
60
60
40
80
ENDCHAR

STARTCHAR less
ENCODING 60
SWIDTH 667 0
DWIDTH 11 0
BBX 9 9 1 1
BITMAP
0080
0300
0C00
3000
E000
3000
0C00
0300
0080
ENDCHAR

STARTCHAR equal
ENCODING 61
SWIDTH 667 0
DWIDTH 11 0
BBX 9 5 1 3
BITMAP
FF80
0000
0000
0000
FF80
ENDCHAR

STARTCHAR greater
ENCODING 62
SWIDTH 667 0
DWIDTH 11 0
BBX 9 9 1 1
BITMAP
8000
6000
1800
0600
0380
0600
1800
6000
8000
ENDCHAR

STARTCHAR question
ENCODING 63
SWIDTH 385 0
DWIDTH 7 0
BBX 6 12 0 0
BITMAP
70
88
04
04
04
0C
38
20
20
00
60
60
ENDCHAR

STARTCHAR at
ENCODING 64
SWIDTH 917 0
DWIDTH 16 0
BBX 14 16 1 -4
BITMAP
07C0
1830
2008
4008
43A4
8444
8844
9044
9084
9088
9190
4EE4
4004
2008
1830
07C0
ENDCHAR

STARTCHAR A
ENCODING 65
SWIDTH 719 0
DWIDTH 12 0
BBX 11 12 0 0
BITMAP
0400
0400
0400
0A00
0A00
1100
1F80
2080
2080
4040
4040
E0E0
ENDCHAR

STARTCHAR B
ENCODING 66
SWIDTH 688 0
DWIDTH 12 0
BBX 10 12 0 0
BITMAP
FF00
2080
2040
2040
2080
3F00
2080
2040
2040
2040
2080
FF00
ENDCHAR

STARTCHAR C
ENCODING 67
SWIDTH 781 0
DWIDTH 13 0
BBX 11 12 1 0
BITMAP
0F80
3040
4020
4000
8000
8000
8000
8000
4000
4020
3040
0F80
ENDCHAR

STARTCHAR D
ENCODING 68
SWIDTH 844 0
DWIDTH 14 0
BBX 12 12 0 0
BITMAP
FF00
20C0
2020
2020
2010
2010
2010
2010
2020
2020
20C0
FF00
ENDCHAR

STARTCHAR E
ENCODING 69
SWIDTH 677 0
DWIDTH 12 0
BBX 10 12 0 0
BITMAP
FFC0
2040
2040
2000
2100
3F00
2100
2000
2000
2040
2080
FF80
ENDCHAR

STARTCHAR F
ENCODING 70
SWIDTH 656 0
DWIDTH 11 0
BBX 10 12 0 0
BITMAP
FFC0
2040
2040
2000
2100
3F00
2100
2000
2000
2000
2000
F800
ENDCHAR

STARTCHAR G
ENCODING 71
SWIDTH 833 0
DWIDTH 14 0
BBX 12 12 1 0
BITMAP
0F80
3040
4020
4000
8000
8000
8070
8020
4020
4020
3040
0F80
ENDCHAR

STARTCHAR H
ENCODING 72
SWIDTH 854 0
DWIDTH 15 0
BBX 14 12 0 0
BITMAP
F87C
2010
2010
2010
2010
3FF0
2010
2010
2010
2010
2010
F87C
ENDCHAR

STARTCHAR I
ENCODING 73
SWIDTH 375 0
DWIDTH 6 0
BBX 5 12 0 0
BITMAP
F8
20
20
20
20
20
20
20
20
20
20
F8
ENDCHAR

STARTCHAR J
ENCODING 74
SWIDTH 354 0
DWIDTH 6 0
BBX 6 16 -1 -4
BITMAP
7C
10
10
10
10
10
10
10
10
10
10
10
10
10
90
60
ENDCHAR

STARTCHAR K
ENCODING 75
SWIDTH 802 0
DWIDTH 14 0
BBX 13 12 0 0
BITMAP
F9E0
2080
2100
2200
2400
3C00
2200
2100
2080
2040
2020
F838
ENDCHAR

STARTCHAR L
ENCODING 76
SWIDTH 677 0
DWIDTH 12 0
BBX 11 12 0 0
BITMAP
F800
2000
2000
2000
2000
2000
2000
2000
2000
2020
2040
FFC0
ENDCHAR

STARTCHAR M
ENCODING 77
SWIDTH 1010 0
DWIDTH 17 0
BBX 17 12 0 0
BITMAP
780F00
180C00
180C00
141400
141400
122400
122400
214200
214200
208200
208200
F88F80
ENDCHAR

STARTCHAR N
ENCODING 78
SWIDTH 844 0
DWIDTH 14 0
BBX 13 12 0 0
BITMAP
E0F8
3020
3020
2820
2420
2420
2220
2120
2120
20A0
2060
F820
ENDCHAR

STARTCHAR O
ENCODING 79
SWIDTH 812 0
DWIDTH 14 0
BBX 11 12 1 0
BITMAP
0E00
3180
4040
4040
8020
8020
8020
8020
4040
4040
3180
0E00
ENDCHAR

STARTCHAR P
ENCODING 80
SWIDTH 635 0
DWIDTH 11 0
BBX 10 12 0 0
BITMAP
FF00
2080
2040
2040
2040
2080
2F00
2000
2000
2000
2000
F800
ENDCHAR

STARTCHAR Q
ENCODING 81
SWIDTH 812 0
DWIDTH 14 0
BBX 13 16 1 -4
BITMAP
0E00
3180
4040
4040
8020
8020
8020
8020
4040
4040
3180
0E00
0C00
0300
00C0
0038
ENDCHAR

STARTCHAR R
ENCODING 82
SWIDTH 719 0
DWIDTH 12 0
BBX 11 12 0 0
BITMAP
FF00
2080
2040
2040
2080
3F00
2400
2200
2100
2080
2040
F860
ENDCHAR

STARTCHAR S
ENCODING 83
SWIDTH 594 0
DWIDTH 10 0
BBX 8 12 1 0
BITMAP
3C
42
81
80
40
38
06
01
01
81
42
3C
ENDCHAR

STARTCHAR T
ENCODING 84
SWIDTH 760 0
DWIDTH 13 0
BBX 11 12 1 0
BITMAP
7FC0
4440
8420
0400
0400
0400
0400
0400
0400
0400
0400
0E00
ENDCHAR

STARTCHAR U
ENCODING 85
SWIDTH 833 0
DWIDTH 14 0
BBX 13 12 0 0
BITMAP
F8F8
2020
2020
2020
2020
2020
2020
2020
2020
2020
1040
0F80
ENDCHAR

STARTCHAR V
ENCODING 86
SWIDTH 708 0
DWIDTH 12 0
BBX 11 12 0 0
BITMAP
F1E0
4040
4040
2080
2080
1100
1100
0A00
0A00
0400
0400
0400
ENDCHAR

STARTCHAR W
ENCODING 87
SWIDTH 1000 0
DWIDTH 17 0
BBX 17 12 0 0
BITMAP
E77380
422100
422100
214200
214200
108400
108400
094800
0A2800
041000
041000
041000
ENDCHAR

STARTCHAR X
ENCODING 88
SWIDTH 781 0
DWIDTH 13 0
BBX 12 12 0 0
BITMAP
E0E0
4040
2080
1100
0A00
0600
0600
0900
1080
2040
4020
E070
ENDCHAR

STARTCHAR Y
ENCODING 89
SWIDTH 719 0
DWIDTH 12 0
BBX 11 12 0 0
BITMAP
E0E0
4040
2080
1100
0A00
0400
0400
0400
0400
0400
0400
1F00
ENDCHAR

STARTCHAR Z
ENCODING 90
SWIDTH 677 0
DWIDTH 12 0
BBX 10 12 1 0
BITMAP
7FC0
4080
8100
0200
0400
0800
0800
1000
2000
4040
8080
FF80
ENDCHAR

STARTCHAR bracketleft
ENCODING 91
SWIDTH 375 0
DWIDTH 6 0
BBX 3 16 2 -4
BITMAP
E0
80
80
80
80
80
80
80
80
80
80
80
80
80
80
E0
ENDCHAR

STARTCHAR backslash
ENCODING 92
SWIDTH 281 0
DWIDTH 5 0
BBX 5 12 0 0
BITMAP
80
80
40
40
40
20
20
10
10
10
08
08
ENDCHAR

STARTCHAR bracketright
ENCODING 93
SWIDTH 375 0
DWIDTH 6 0
BBX 3 16 1 -4
BITMAP
E0
20
20
20
20
20
20
20
20
20
20
20
20
20
20
E0
ENDCHAR

STARTCHAR asciicircum
ENCODING 94
SWIDTH 469 0
DWIDTH 8 0
BBX 8 6 0 6
BITMAP
08
18
14
24
42
C3
ENDCHAR

STARTCHAR underscore
ENCODING 95
SWIDTH 500 0
DWIDTH 9 0
BBX 9 1 0 -3
BITMAP
FF80
ENDCHAR

STARTCHAR quoteleft
ENCODING 96
SWIDTH 292 0
DWIDTH 5 0
BBX 3 4 1 8
BITMAP
20
40
C0
C0
ENDCHAR

STARTCHAR a
ENCODING 97
SWIDTH 479 0
DWIDTH 8 0
BBX 6 8 1 0
BITMAP
70
88
08
38
48
88
98
6C
ENDCHAR

STARTCHAR b
ENCODING 98
SWIDTH 562 0
DWIDTH 10 0
BBX 8 12 1 0
BITMAP
40
C0
40
40
5C
62
41
41
41
41
42
3C
ENDCHAR

STARTCHAR c
ENCODING 99
SWIDTH 469 0
DWIDTH 8 0
BBX 6 8 1 0
BITMAP
3C
44
80
80
80
80
44
38
ENDCHAR

STARTCHAR d
ENCODING 100
SWIDTH 573 0
DWIDTH 10 0
BBX 8 12 1 0
BITMAP
02
06
02
02
3A
46
82
82
82
82
46
3B
ENDCHAR

STARTCHAR e
ENCODING 101
SWIDTH 469 0
DWIDTH 8 0
BBX 6 8 1 0
BITMAP
38
44
84
FC
80
80
44
38
ENDCHAR

STARTCHAR f
ENCODING 102
SWIDTH 312 0
DWIDTH 5 0
BBX 5 12 1 0
BITMAP
30
48
40
40
F0
40
40
40
40
40
40
E0
ENDCHAR

STARTCHAR g
ENCODING 103
SWIDTH 500 0
DWIDTH 9 0
BBX 8 12 0 -4
BITMAP
3C
43
42
42
42
3C
40
20
5E
81
81
7E
ENDCHAR

STARTCHAR h
ENCODING 104
SWIDTH 562 0
DWIDTH 10 0
BBX 8 12 1 0
BITMAP
40
C0
40
40
5C
62
42
42
42
42
42
E7
ENDCHAR

STARTCHAR i
ENCODING 105
SWIDTH 271 0
DWIDTH 5 0
BBX 3 12 1 0
BITMAP
40
40
00
00
40
C0
40
40
40
40
40
E0
ENDCHAR

STARTCHAR j
ENCODING 106
SWIDTH 260 0
DWIDTH 4 0
BBX 3 16 0 -4
BITMAP
20
20
00
00
20
60
20
20
20
20
20
20
20
20
20
C0
ENDCHAR

STARTCHAR k
ENCODING 107
SWIDTH 510 0
DWIDTH 9 0
BBX 8 12 1 0
BITMAP
40
C0
40
40
4E
44
48
70
48
44
42
E7
ENDCHAR

STARTCHAR l
ENCODING 108
SWIDTH 271 0
DWIDTH 5 0
BBX 3 12 1 0
BITMAP
40
C0
40
40
40
40
40
40
40
40
40
E0
ENDCHAR

STARTCHAR m
ENCODING 109
SWIDTH 865 0
DWIDTH 15 0
BBX 13 8 1 0
BITMAP
5CE0
E310
4210
4210
4210
4210
4210
E738
ENDCHAR

STARTCHAR n
ENCODING 110
SWIDTH 573 0
DWIDTH 10 0
BBX 8 8 1 0
BITMAP
5C
E2
42
42
42
42
42
E7
ENDCHAR

STARTCHAR o
ENCODING 111
SWIDTH 542 0
DWIDTH 9 0
BBX 7 8 1 0
BITMAP
38
44
82
82
82
82
44
38
ENDCHAR

STARTCHAR p
ENCODING 112
SWIDTH 562 0
DWIDTH 10 0
BBX 8 12 1 -4
BITMAP
5C
E2
41
41
41
41
62
5C
40
40
40
E0
ENDCHAR

STARTCHAR q
ENCODING 113
SWIDTH 562 0
DWIDTH 10 0
BBX 8 12 1 -4
BITMAP
3A
46
82
82
82
82
46
3A
02
02
02
07
ENDCHAR

STARTCHAR r
ENCODING 114
SWIDTH 375 0
DWIDTH 7 0
BBX 6 8 1 0
BITMAP
5C
E4
40
40
40
40
40
E0
ENDCHAR

STARTCHAR s
ENCODING 115
SWIDTH 396 0
DWIDTH 7 0
BBX 5 8 1 0
BITMAP
70
88
80
60
10
08
88
70
ENDCHAR

STARTCHAR t
ENCODING 116
SWIDTH 333 0
DWIDTH 6 0
BBX 4 10 1 0
BITMAP
40
40
F0
40
40
40
40
40
40
30
ENDCHAR

STARTCHAR u
ENCODING 117
SWIDTH 573 0
DWIDTH 10 0
BBX 8 8 1 0
BITMAP
C6
42
42
42
42
42
46
3B
ENDCHAR

STARTCHAR v
ENCODING 118
SWIDTH 479 0
DWIDTH 9 0
BBX 9 8 0 0
BITMAP
E380
4100
4100
2200
2200
1400
1400
0800
ENDCHAR

STARTCHAR w
ENCODING 119
SWIDTH 729 0
DWIDTH 12 0
BBX 12 8 0 0
BITMAP
EE70
4420
4420
2640
2940
3980
1080
1080
ENDCHAR

STARTCHAR x
ENCODING 120
SWIDTH 500 0
DWIDTH 8 0
BBX 8 8 0 0
BITMAP
E7
42
24
18
18
24
42
E7
ENDCHAR

STARTCHAR y
ENCODING 121
SWIDTH 479 0
DWIDTH 8 0
BBX 8 12 0 -4
BITMAP
E7
42
42
22
24
14
14
0C
08
08
90
60
ENDCHAR

STARTCHAR z
ENCODING 122
SWIDTH 437 0
DWIDTH 7 0
BBX 7 8 0 0
BITMAP
FE
82
04
18
20
40
82
FE
ENDCHAR

STARTCHAR braceleft
ENCODING 123
SWIDTH 479 0
DWIDTH 8 0
BBX 4 16 2 -4
BITMAP
10
20
40
40
40
40
40
80
80
40
40
40
40
40
20
10
ENDCHAR

STARTCHAR bar
ENCODING 124
SWIDTH 198 0
DWIDTH 3 0
BBX 1 16 1 -4
BITMAP
80
80
80
80
80
80
80
80
80
80
80
80
80
80
80
80
ENDCHAR

STARTCHAR braceright
ENCODING 125
SWIDTH 479 0
DWIDTH 8 0
BBX 4 16 2 -4
BITMAP
80
40
20
20
20
20
20
10
10
20
20
20
20
20
40
80
ENDCHAR

STARTCHAR asciitilde
ENCODING 126
SWIDTH 542 0
DWIDTH 9 0
BBX 9 2 0 5
BITMAP
7880
8F00
ENDCHAR

STARTCHAR space
ENCODING 160
SWIDTH 250 0
DWIDTH 5 0
BBX 0 0 0 0
BITMAP
ENDCHAR

STARTCHAR afii10023
ENCODING 161
SWIDTH 677 0
DWIDTH 12 0
BBX 10 15 0 0
BITMAP
1200
1200
0000
FFC0
2040
2040
2000
2100
3F00
2100
2000
2000
2040
2080
FF80
ENDCHAR

STARTCHAR afii10051
ENCODING 162
SWIDTH 823 0
DWIDTH 14 0
BBX 12 12 0 0
BITMAP
FF80
8880
8880
0800
0BC0
0C20
0810
0810
0810
0810
08A0
3EC0
ENDCHAR

STARTCHAR afii10052
ENCODING 163
SWIDTH 635 0
DWIDTH 11 0
BBX 10 15 0 0
BITMAP
0600
0800
0000
FFC0
2040
2040
2000
2000
2000
2000
2000
2000
2000
2000
F800
ENDCHAR

STARTCHAR afii10053
ENCODING 164
SWIDTH 729 0
DWIDTH 13 0
BBX 10 12 1 0
BITMAP
1F00
60C0
4040
8000
8000
FF00
8000
8000
8000
4040
60C0
1F00
ENDCHAR

STARTCHAR afii10054
ENCODING 165
SWIDTH 594 0
DWIDTH 10 0
BBX 8 12 1 0
BITMAP
3C
42
81
80
40
38
06
01
01
81
42
3C
ENDCHAR

STARTCHAR afii10055
ENCODING 166
SWIDTH 375 0
DWIDTH 6 0
BBX 5 12 0 0
BITMAP
F8
20
20
20
20
20
20
20
20
20
20
F8
ENDCHAR

STARTCHAR afii10056
ENCODING 167
SWIDTH 375 0
DWIDTH 6 0
BBX 5 15 0 0
BITMAP
48
48
00
F8
20
20
20
20
20
20
20
20
20
20
F8
ENDCHAR

STARTCHAR afii10057
ENCODING 168
SWIDTH 354 0
DWIDTH 6 0
BBX 6 16 -1 -4
BITMAP
7C
10
10
10
10
10
10
10
10
10
10
10
10
10
90
60
ENDCHAR

STARTCHAR afii10058
ENCODING 169
SWIDTH 986 0
DWIDTH 18 0
BBX 17 12 -1 0
BITMAP
3FF000
084000
084000
084000
084000
087E00
084100
084080
084080
084080
884100
71FE00
ENDCHAR

STARTCHAR afii10059
ENCODING 170
SWIDTH 1015 0
DWIDTH 18 0
BBX 16 12 0 0
BITMAP
FBE0
2080
2080
2080
2080
3FFC
2082
2081
2081
2081
2082
F9FC
ENDCHAR

STARTCHAR afii10060
ENCODING 171
SWIDTH 823 0
DWIDTH 14 0
BBX 13 12 0 0
BITMAP
FF80
8880
8880
0800
0BC0
0C20
0820
0820
0820
0820
0820
3EF8
ENDCHAR

STARTCHAR afii10061
ENCODING 172
SWIDTH 750 0
DWIDTH 13 0
BBX 12 15 0 0
BITMAP
0300
0400
0000
F860
2090
2080
2080
2100
3E00
2200
2100
2080
2040
2020
F830
ENDCHAR

STARTCHAR hyphen
ENCODING 173
SWIDTH 365 0
DWIDTH 6 0
BBX 5 1 1 4
BITMAP
F8
ENDCHAR

STARTCHAR afii10062
ENCODING 174
SWIDTH 750 0
DWIDTH 13 0
BBX 11 15 1 0
BITMAP
0880
0700
0000
E0E0
4040
2040
2080
1080
0880
0900
0500
0600
0600
6400
3800
ENDCHAR

STARTCHAR afii10145
ENCODING 175
SWIDTH 854 0
DWIDTH 15 0
BBX 14 14 0 -2
BITMAP
F87C
2010
2010
2010
2010
2010
2010
2010
2010
2010
2010
FFFC
0200
0200
ENDCHAR

STARTCHAR afii10017
ENCODING 176
SWIDTH 719 0
DWIDTH 12 0
BBX 11 12 0 0
BITMAP
0400
0400
0400
0A00
0A00
1100
1F80
2080
2080
4040
4040
E0E0
ENDCHAR

STARTCHAR afii10018
ENCODING 177
SWIDTH 656 0
DWIDTH 12 0
BBX 10 12 0 0
BITMAP
FF80
2080
2080
2000
2000
3F00
2080
2040
2040
2040
2080
FF00
ENDCHAR

STARTCHAR afii10019
ENCODING 178
SWIDTH 688 0
DWIDTH 12 0
BBX 10 12 0 0
BITMAP
FF00
2080
2040
2040
2080
3F00
2080
2040
2040
2040
2080
FF00
ENDCHAR

STARTCHAR afii10020
ENCODING 179
SWIDTH 635 0
DWIDTH 11 0
BBX 10 12 0 0
BITMAP
FFC0
2040
2040
2000
2000
2000
2000
2000
2000
2000
2000
F800
ENDCHAR

STARTCHAR afii10021
ENCODING 180
SWIDTH 792 0
DWIDTH 13 0
BBX 13 14 0 -2
BITMAP
3FF8
0820
0820
0820
0820
0820
0820
0820
1020
1020
2020
FFF8
C018
8008
ENDCHAR

STARTCHAR afii10022
ENCODING 181
SWIDTH 677 0
DWIDTH 12 0
BBX 10 12 0 0
BITMAP
FFC0
2040
2040
2000
2100
3F00
2100
2000
2000
2040
2080
FF80
ENDCHAR

STARTCHAR afii10024
ENCODING 182
SWIDTH 1031 0
DWIDTH 18 0
BBX 15 12 1 0
BITMAP
C7C6
A10A
1110
1110
0920
0FE0
0920
1110
1110
2108
4104
C7C6
ENDCHAR

STARTCHAR afii10025
ENCODING 183
SWIDTH 667 0
DWIDTH 12 0
BBX 9 12 1 0
BITMAP
7E00
C100
8080
0080
0100
1E00
0100
0080
0080
0080
C100
7E00
ENDCHAR

STARTCHAR afii10026
ENCODING 184
SWIDTH 854 0
DWIDTH 15 0
BBX 14 12 0 0
BITMAP
F87C
2010
2030
2050
2090
2110
2210
2410
2810
3010
2010
F87C
ENDCHAR

STARTCHAR afii10027
ENCODING 185
SWIDTH 854 0
DWIDTH 15 0
BBX 14 15 0 0
BITMAP
0440
0380
0000
F87C
2010
2030
2050
2090
2110
2210
2410
2810
3010
2010
F87C
ENDCHAR

STARTCHAR afii10028
ENCODING 186
SWIDTH 750 0
DWIDTH 13 0
BBX 12 12 0 0
BITMAP
F860
2090
2080
2080
2100
3E00
2200
2100
2080
2040
2020
F830
ENDCHAR

STARTCHAR afii10029
ENCODING 187
SWIDTH 760 0
DWIDTH 13 0
BBX 12 12 0 0
BITMAP
3FF0
0840
0840
0840
0840
0840
0840
0840
0840
0840
8840
71F0
ENDCHAR

STARTCHAR afii10030
ENCODING 188
SWIDTH 1010 0
DWIDTH 17 0
BBX 17 12 0 0
BITMAP
780F00
180C00
180C00
141400
141400
122400
122400
214200
214200
208200
208200
F88F80
ENDCHAR

STARTCHAR afii10031
ENCODING 189
SWIDTH 854 0
DWIDTH 15 0
BBX 14 12 0 0
BITMAP
F87C
2010
2010
2010
2010
3FF0
2010
2010
2010
2010
2010
F87C
ENDCHAR

STARTCHAR afii10032
ENCODING 190
SWIDTH 813 0
DWIDTH 14 0
BBX 11 12 1 0
BITMAP
0E00
3180
4040
4040
8020
8020
8020
8020
4040
4040
3180
0E00
ENDCHAR

STARTCHAR afii10033
ENCODING 191
SWIDTH 854 0
DWIDTH 15 0
BBX 14 12 0 0
BITMAP
FFFC
2010
2010
2010
2010
2010
2010
2010
2010
2010
2010
F87C
ENDCHAR

STARTCHAR afii10034
ENCODING 192
SWIDTH 635 0
DWIDTH 11 0
BBX 10 12 0 0
BITMAP
FF00
2080
2040
2040
2040
2080
2F00
2000
2000
2000
2000
F800
ENDCHAR

STARTCHAR afii10035
ENCODING 193
SWIDTH 781 0
DWIDTH 13 0
BBX 11 12 1 0
BITMAP
0F80
3040
4020
4000
8000
8000
8000
8000
4000
4020
3040
0F80
ENDCHAR

STARTCHAR afii10036
ENCODING 194
SWIDTH 760 0
DWIDTH 13 0
BBX 11 12 1 0
BITMAP
7FC0
4440
8420
0400
0400
0400
0400
0400
0400
0400
0400
0E00
ENDCHAR

STARTCHAR afii10037
ENCODING 195
SWIDTH 750 0
DWIDTH 13 0
BBX 11 12 1 0
BITMAP
E0E0
4040
2040
2080
1080
0880
0900
0500
0600
0600
6400
3800
ENDCHAR

STARTCHAR afii10038
ENCODING 196
SWIDTH 974 0
DWIDTH 17 0
BBX 15 12 1 0
BITMAP
07C0
0100
1FF0
610C
8102
8102
8102
8102
610C
1FF0
0100
07C0
ENDCHAR

STARTCHAR afii10039
ENCODING 197
SWIDTH 781 0
DWIDTH 13 0
BBX 12 12 0 0
BITMAP
E0E0
4040
2080
1100
0A00
0600
0600
0900
1080
2040
4020
E070
ENDCHAR

STARTCHAR afii10040
ENCODING 198
SWIDTH 854 0
DWIDTH 15 0
BBX 14 14 0 -2
BITMAP
F87C
2010
2010
2010
2010
2010
2010
2010
2010
2010
2010
FFFC
000C
0004
ENDCHAR

STARTCHAR afii10041
ENCODING 199
SWIDTH 854 0
DWIDTH 15 0
BBX 14 12 0 0
BITMAP
F87C
2010
2010
2010
2010
2030
1050
0F90
0010
0010
0010
007C
ENDCHAR

STARTCHAR afii10042
ENCODING 200
SWIDTH 1052 0
DWIDTH 18 0
BBX 17 12 0 0
BITMAP
FBEF80
208200
208200
208200
208200
208200
208200
208200
208200
208200
208200
FFFF80
ENDCHAR

STARTCHAR afii10043
ENCODING 201
SWIDTH 1052 0
DWIDTH 18 0
BBX 17 14 0 -2
BITMAP
FBEF80
208200
208200
208200
208200
208200
208200
208200
208200
208200
208200
FFFF80
000180
000080
ENDCHAR

STARTCHAR afii10044
ENCODING 202
SWIDTH 775 0
DWIDTH 14 0
BBX 12 12 0 0
BITMAP
FE00
8800
8800
0800
0800
0FC0
0820
0810
0810
0810
0820
3FC0
ENDCHAR

STARTCHAR afii10045
ENCODING 203
SWIDTH 1031 0
DWIDTH 17 0
BBX 16 12 0 0
BITMAP
F81F
2004
2004
2004
2004
3F04
2084
2044
2044
2044
2084
FF1F
ENDCHAR

STARTCHAR afii10046
ENCODING 204
SWIDTH 632 0
DWIDTH 12 0
BBX 10 12 0 0
BITMAP
F800
2000
2000
2000
2000
3F00
2080
2040
2040
2040
2080
FF00
ENDCHAR

STARTCHAR afii10047
ENCODING 205
SWIDTH 719 0
DWIDTH 13 0
BBX 10 12 1 0
BITMAP
3E00
C180
8080
0040
0040
3FC0
0040
0040
0040
8080
C180
3E00
ENDCHAR

STARTCHAR afii10048
ENCODING 206
SWIDTH 1177 0
DWIDTH 20 0
BBX 18 12 0 0
BITMAP
F81C00
206300
208080
208080
210040
3F0040
210040
210040
208080
208080
206300
F81C00
ENDCHAR

STARTCHAR afii10049
ENCODING 207
SWIDTH 740 0
DWIDTH 12 0
BBX 11 12 0 0
BITMAP
1FE0
2080
4080
4080
2080
1F80
0480
0880
1080
2080
4080
C3E0
ENDCHAR

STARTCHAR afii10065
ENCODING 208
SWIDTH 479 0
DWIDTH 8 0
BBX 6 8 1 0
BITMAP
70
88
08
38
48
88
98
6C
ENDCHAR

STARTCHAR afii10066
ENCODING 209
SWIDTH 542 0
DWIDTH 9 0
BBX 8 12 1 0
BITMAP
01
0E
38
40
B8
C4
82
82
82
82
44
38
ENDCHAR

STARTCHAR afii10067
ENCODING 210
SWIDTH 552 0
DWIDTH 9 0
BBX 7 8 1 0
BITMAP
FC
42
42
7C
42
42
42
FC
ENDCHAR

STARTCHAR afii10068
ENCODING 211
SWIDTH 438 0
DWIDTH 7 0
BBX 6 8 1 0
BITMAP
FC
44
40
40
40
40
40
E0
ENDCHAR

STARTCHAR afii10069
ENCODING 212
SWIDTH 542 0
DWIDTH 9 0
BBX 9 10 0 -2
BITMAP
7F00
2200
2200
2200
2200
2200
4200
FF80
C180
8080
ENDCHAR

STARTCHAR afii10070
ENCODING 213
SWIDTH 469 0
DWIDTH 8 0
BBX 6 8 1 0
BITMAP
38
44
84
FC
80
80
44
38
ENDCHAR

STARTCHAR afii10072
ENCODING 214
SWIDTH 854 0
DWIDTH 15 0
BBX 13 8 1 0
BITMAP
C718
A228
2220
1FC0
1240
2220
4210
C718
ENDCHAR

STARTCHAR afii10073
ENCODING 215
SWIDTH 469 0
DWIDTH 8 0
BBX 6 8 1 0
BITMAP
78
84
04
38
04
04
C4
78
ENDCHAR

STARTCHAR afii10074
ENCODING 216
SWIDTH 583 0
DWIDTH 10 0
BBX 8 8 1 0
BITMAP
E7
42
46
4A
52
62
42
E7
ENDCHAR

STARTCHAR afii10075
ENCODING 217
SWIDTH 583 0
DWIDTH 10 0
BBX 8 11 1 0
BITMAP
22
1C
00
E7
42
46
4A
52
62
42
E7
ENDCHAR

STARTCHAR afii10076
ENCODING 218
SWIDTH 573 0
DWIDTH 9 0
BBX 8 8 1 0
BITMAP
E3
44
44
78
44
44
44
E3
ENDCHAR

STARTCHAR afii10077
ENCODING 219
SWIDTH 573 0
DWIDTH 10 0
BBX 9 8 0 0
BITMAP
3F80
1100
1100
1100
1100
1100
9100
6380
ENDCHAR

STARTCHAR afii10078
ENCODING 220
SWIDTH 625 0
DWIDTH 11 0
BBX 11 8 0 0
BITMAP
1100
1100
1100
2A80
2A80
2480
4440
E4E0
ENDCHAR

STARTCHAR afii10079
ENCODING 221
SWIDTH 563 0
DWIDTH 10 0
BBX 8 8 1 0
BITMAP
E7
42
42
7E
42
42
42
E7
ENDCHAR

STARTCHAR afii10080
ENCODING 222
SWIDTH 542 0
DWIDTH 9 0
BBX 7 8 1 0
BITMAP
38
44
82
82
82
82
44
38
ENDCHAR

STARTCHAR afii10081
ENCODING 223
SWIDTH 573 0
DWIDTH 10 0
BBX 8 8 1 0
BITMAP
FF
42
42
42
42
42
42
E7
ENDCHAR

STARTCHAR afii10082
ENCODING 224
SWIDTH 562 0
DWIDTH 10 0
BBX 8 12 1 -4
BITMAP
5C
E2
41
41
41
41
62
5C
40
40
40
E0
ENDCHAR

STARTCHAR afii10083
ENCODING 225
SWIDTH 469 0
DWIDTH 8 0
BBX 6 8 1 0
BITMAP
3C
44
80
80
80
80
44
38
ENDCHAR

STARTCHAR afii10084
ENCODING 226
SWIDTH 458 0
DWIDTH 7 0
BBX 7 8 0 0
BITMAP
FE
92
10
10
10
10
10
38
ENDCHAR

STARTCHAR afii10085
ENCODING 227
SWIDTH 479 0
DWIDTH 8 0
BBX 8 12 0 -4
BITMAP
E7
42
42
22
24
14
14
0C
08
08
90
60
ENDCHAR

STARTCHAR afii10086
ENCODING 228
SWIDTH 750 0
DWIDTH 13 0
BBX 11 16 1 -4
BITMAP
0400
0C00
0400
0400
3580
4E40
8420
8420
8420
8420
4E40
3580
0400
0400
0400
0E00
ENDCHAR

STARTCHAR afii10087
ENCODING 229
SWIDTH 500 0
DWIDTH 8 0
BBX 8 8 0 0
BITMAP
E7
42
24
18
18
24
42
E7
ENDCHAR

STARTCHAR afii10088
ENCODING 230
SWIDTH 573 0
DWIDTH 10 0
BBX 8 10 1 -2
BITMAP
E7
42
42
42
42
42
42
FF
03
01
ENDCHAR

STARTCHAR afii10089
ENCODING 231
SWIDTH 573 0
DWIDTH 10 0
BBX 8 8 1 0
BITMAP
E7
42
42
46
3A
02
02
07
ENDCHAR

STARTCHAR afii10090
ENCODING 232
SWIDTH 854 0
DWIDTH 15 0
BBX 13 8 1 0
BITMAP
E738
4210
4210
4210
4210
4210
4210
FFF8
ENDCHAR

STARTCHAR afii10091
ENCODING 233
SWIDTH 854 0
DWIDTH 15 0
BBX 13 10 1 -2
BITMAP
E738
4210
4210
4210
4210
4210
4210
FFF8
0018
0008
ENDCHAR

STARTCHAR afii10092
ENCODING 234
SWIDTH 638 0
DWIDTH 10 0
BBX 9 8 0 0
BITMAP
F800
9000
1000
1F00
1080
1080
1080
3F00
ENDCHAR

STARTCHAR afii10093
ENCODING 235
SWIDTH 792 0
DWIDTH 13 0
BBX 11 8 1 0
BITMAP
E0E0
4040
4040
7C40
4240
4240
4240
FCE0
ENDCHAR

STARTCHAR afii10094
ENCODING 236
SWIDTH 485 0
DWIDTH 9 0
BBX 7 8 1 0
BITMAP
E0
40
40
7C
42
42
42
FC
ENDCHAR

STARTCHAR afii10095
ENCODING 237
SWIDTH 490 0
DWIDTH 8 0
BBX 6 8 1 0
BITMAP
70
88
04
3C
04
04
88
70
ENDCHAR

STARTCHAR afii10096
ENCODING 238
SWIDTH 813 0
DWIDTH 14 0
BBX 12 8 1 0
BITMAP
E1C0
4220
4410
7C10
4410
4410
4220
E1C0
ENDCHAR

STARTCHAR afii10097
ENCODING 239
SWIDTH 563 0
DWIDTH 9 0
BBX 8 8 0 0
BITMAP
3F
42
42
3E
22
42
42
C7
ENDCHAR

STARTCHAR afii61352
ENCODING 240
SWIDTH 1031 0
DWIDTH 18 0
BBX 17 12 0 0
BITMAP
383000
186800
144000
144700
124880
124880
124880
114880
114700
10C000
B0C000
604F80
ENDCHAR

STARTCHAR afii10071
ENCODING 241
SWIDTH 469 0
DWIDTH 8 0
BBX 6 11 1 0
BITMAP
48
48
00
38
44
84
FC
80
80
44
38
ENDCHAR

STARTCHAR afii10099
ENCODING 242
SWIDTH 513 0
DWIDTH 10 0
BBX 7 15 1 -3
BITMAP
40
FC
40
40
5C
62
42
42
42
42
42
E2
04
04
08
ENDCHAR

STARTCHAR afii10100
ENCODING 243
SWIDTH 458 0
DWIDTH 8 0
BBX 6 11 1 0
BITMAP
18
20
00
FC
44
40
40
40
40
40
E0
ENDCHAR

STARTCHAR afii10101
ENCODING 244
SWIDTH 490 0
DWIDTH 8 0
BBX 6 8 1 0
BITMAP
38
44
80
F0
80
80
44
38
ENDCHAR

STARTCHAR afii10102
ENCODING 245
SWIDTH 396 0
DWIDTH 7 0
BBX 5 8 1 0
BITMAP
70
88
80
60
10
08
88
70
ENDCHAR

STARTCHAR afii10103
ENCODING 246
SWIDTH 271 0
DWIDTH 5 0
BBX 3 12 1 0
BITMAP
40
40
00
00
40
C0
40
40
40
40
40
E0
ENDCHAR

STARTCHAR afii10104
ENCODING 247
SWIDTH 271 0
DWIDTH 5 0
BBX 4 11 1 0
BITMAP
90
90
00
40
C0
40
40
40
40
40
E0
ENDCHAR

STARTCHAR afii10105
ENCODING 248
SWIDTH 260 0
DWIDTH 4 0
BBX 3 16 0 -4
BITMAP
20
20
00
00
20
60
20
20
20
20
20
20
20
20
20
C0
ENDCHAR

STARTCHAR afii10106
ENCODING 249
SWIDTH 831 0
DWIDTH 13 0
BBX 13 8 -1 0
BITMAP
3F80
1100
1100
11F0
1108
1108
9108
63F0
ENDCHAR

STARTCHAR afii10107
ENCODING 250
SWIDTH 814 0
DWIDTH 14 0
BBX 12 8 1 0
BITMAP
E700
4200
4200
7FE0
4210
4210
4210
E7E0
ENDCHAR

STARTCHAR afii10108
ENCODING 251
SWIDTH 573 0
DWIDTH 10 0
BBX 8 12 1 0
BITMAP
40
FC
40
40
5C
62
42
42
42
42
42
E7
ENDCHAR

STARTCHAR afii10109
ENCODING 252
SWIDTH 573 0
DWIDTH 9 0
BBX 8 11 1 0
BITMAP
0C
10
00
E3
44
44
78
44
44
44
E3
ENDCHAR

STARTCHAR section
ENCODING 253
SWIDTH 427 0
DWIDTH 8 0
BBX 6 16 1 -4
BITMAP
38
4C
C0
A0
A0
90
50
48
28
28
24
14
14
0C
C8
70
ENDCHAR

STARTCHAR afii10110
ENCODING 254
SWIDTH 479 0
DWIDTH 8 0
BBX 8 15 0 -4
BITMAP
24
18
00
E7
42
42
22
24
14
14
0C
08
08
90
60
ENDCHAR

STARTCHAR afii10193
ENCODING 255
SWIDTH 573 0
DWIDTH 10 0
BBX 8 10 1 -2
BITMAP
E7
42
42
42
42
42
42
FF
10
10
ENDCHAR
ENDFONT
